<svg width="136" height="155" viewBox="0 0 136 155" fill="none" xmlns="http://www.w3.org/2000/svg">
<path d="M73.4066 87.7045C71.8822 84.0227 70.5756 80.3409 69.0513 75.9227H68.398C67.527 79.6045 65.7849 83.6545 64.2605 87.3364L51.1947 118.816H39L62.3006 68.5591C62.7362 67.2705 63.1717 66.5341 63.1717 65.9818C63.1717 65.2455 62.9539 64.325 62.3006 63.0364C58.1631 53.4636 53.3724 45.9159 45.5329 45.9159C44.8796 45.9159 44.0086 45.9159 43.3553 46.1L44.2263 38.3682C45.3151 38 47.0572 38 48.7993 38C61.4296 38 67.3092 48.3091 74.2776 63.7727L98.8849 119H86.4724L73.4066 87.7045Z" fill="#7400B3"/>
<path d="M68 155C66.7525 155 65.5237 154.772 64.3321 154.315L16.7241 135.68C13.0935 134.272 10.5427 130.793 10.189 126.856L0.0417853 11.3906C-0.218876 8.48117 0.749295 5.55269 2.68564 3.40388C4.62198 1.25506 7.37755 0 10.2448 0H125.755C128.622 0 131.378 1.23604 133.314 3.40388C135.251 5.57171 136.219 8.48117 135.958 11.3906L125.811 126.856C125.457 130.812 122.888 134.272 119.276 135.68L71.6679 154.296C70.4763 154.753 69.2475 155 68 155ZM10.2448 9.50804C9.90969 9.50804 9.68627 9.67918 9.55594 9.81229C9.42561 9.94541 9.27666 10.1926 9.31389 10.5349L19.4611 126C19.4983 126.362 19.7217 126.666 20.0569 126.799L67.6649 145.416C67.8883 145.511 68.1117 145.511 68.3351 145.416L115.943 126.799C116.278 126.666 116.502 126.362 116.539 126L126.686 10.5349C126.723 10.1926 126.574 9.94541 126.444 9.81229C126.314 9.67918 126.09 9.50804 125.755 9.50804H10.2448Z" fill="#7400B3"/>
<ellipse cx="69" cy="33.5" rx="8" ry="8.5" fill="#7400B3"/>
</svg>
