<svg width="236" height="236" viewBox="0 0 236 236" fill="none" xmlns="http://www.w3.org/2000/svg">
<circle cx="118" cy="118" r="118" fill="white"/>
<path d="M123.407 136.705C121.882 133.023 120.576 129.341 119.051 124.923H118.398C117.527 128.605 115.785 132.655 114.261 136.336L101.195 167.816H89L112.301 117.559C112.736 116.27 113.172 115.534 113.172 114.982C113.172 114.245 112.954 113.325 112.301 112.036C108.163 102.464 103.372 94.9159 95.5329 94.9159C94.8796 94.9159 94.0086 94.9159 93.3553 95.1L94.2263 87.3682C95.3151 87 97.0572 87 98.7993 87C111.43 87 117.309 97.3091 124.278 112.773L148.885 168H136.472L123.407 136.705Z" fill="#7400B3"/>
<path d="M118 204C116.753 204 115.524 203.772 114.332 203.315L66.7241 184.68C63.0935 183.272 60.5427 179.793 60.189 175.856L50.0418 60.3906C49.7811 57.4812 50.7493 54.5527 52.6856 52.4039C54.622 50.2551 57.3775 49 60.2448 49H175.755C178.622 49 181.378 50.236 183.314 52.4039C185.251 54.5717 186.219 57.4812 185.958 60.3906L175.811 175.856C175.457 179.812 172.888 183.272 169.276 184.68L121.668 203.296C120.476 203.753 119.247 204 118 204ZM60.2448 58.508C59.9097 58.508 59.6863 58.6792 59.5559 58.8123C59.4256 58.9454 59.2767 59.1926 59.3139 59.5349L69.4611 175C69.4983 175.362 69.7217 175.666 70.0569 175.799L117.665 194.416C117.888 194.511 118.112 194.511 118.335 194.416L165.943 175.799C166.278 175.666 166.502 175.362 166.539 175L176.686 59.5349C176.723 59.1926 176.574 58.9454 176.444 58.8123C176.314 58.6792 176.09 58.508 175.755 58.508H60.2448Z" fill="#7400B3"/>
<ellipse cx="119" cy="82.5" rx="8" ry="8.5" fill="#7400B3"/>
</svg>
