<svg width="472" height="159" viewBox="0 0 472 159" fill="none" xmlns="http://www.w3.org/2000/svg">
<path d="M154.64 28.4C154.64 20.24 158 13.6 164.72 8.48C171.52 3.36 180.4 0.799995 191.36 0.799995C202.4 0.799995 211.4 3.48 218.36 8.84C225.4 14.2 228.92 19.8 228.92 25.64C228.92 26.36 228.64 27 228.08 27.56C227.6 28.04 227.04 28.28 226.4 28.28H202.4C200.56 28.28 198.88 27.6 197.36 26.24C195.84 24.88 193.8 24.2 191.24 24.2C187.4 24.2 185.48 25.32 185.48 27.56C185.48 28.76 186.4 29.76 188.24 30.56C190.16 31.36 193.68 32.08 198.8 32.72C210.72 34.24 219.2 37.04 224.24 41.12C229.36 45.12 231.92 51.24 231.92 59.48C231.92 67.64 228.16 74.32 220.64 79.52C213.2 84.64 203.44 87.2 191.36 87.2C179.28 87.2 169.8 84.72 162.92 79.76C156.04 74.8 152.6 68.76 152.6 61.64C152.6 60.92 152.84 60.32 153.32 59.84C153.88 59.28 154.52 59 155.24 59H178.04C179.72 59 181.56 59.8 183.56 61.4C185.64 63 188.48 63.8 192.08 63.8C198.08 63.8 201.08 62.68 201.08 60.44C201.08 59 200 57.92 197.84 57.2C195.68 56.4 191.6 55.6 185.6 54.8C164.96 52.08 154.64 43.28 154.64 28.4ZM272.084 62.6H309.044C309.924 62.6 310.684 62.92 311.324 63.56C311.964 64.2 312.284 64.96 312.284 65.84V82.76C312.284 83.64 311.964 84.4 311.324 85.04C310.684 85.68 309.924 86 309.044 86H246.524C245.644 86 244.884 85.68 244.244 85.04C243.604 84.4 243.284 83.64 243.284 82.76V5.24C243.284 4.36 243.604 3.6 244.244 2.96C244.884 2.31999 245.644 1.99999 246.524 1.99999H308.084C308.964 1.99999 309.724 2.31999 310.364 2.96C311.004 3.6 311.324 4.36 311.324 5.24V22.16C311.324 23.04 311.004 23.8 310.364 24.44C309.724 25.08 308.964 25.4 308.084 25.4H272.084V32.96H305.444C306.324 32.96 307.084 33.28 307.724 33.92C308.364 34.56 308.684 35.32 308.684 36.2V51.8C308.684 52.68 308.364 53.44 307.724 54.08C307.084 54.72 306.324 55.04 305.444 55.04H272.084V62.6ZM357.202 61.4H390.442C391.322 61.4 392.082 61.72 392.722 62.36C393.362 63 393.682 63.76 393.682 64.64V82.76C393.682 83.64 393.362 84.4 392.722 85.04C392.082 85.68 391.322 86 390.442 86H329.962C329.082 86 328.322 85.68 327.682 85.04C327.042 84.4 326.722 83.64 326.722 82.76V5.24C326.722 4.36 327.042 3.6 327.682 2.96C328.322 2.31999 329.082 1.99999 329.962 1.99999H353.962C354.842 1.99999 355.602 2.31999 356.242 2.96C356.882 3.6 357.202 4.36 357.202 5.24V61.4ZM407.774 1.99999H468.254C469.134 1.99999 469.894 2.31999 470.534 2.96C471.174 3.6 471.494 4.36 471.494 5.24V23.48C471.494 24.36 471.174 25.12 470.534 25.76C469.894 26.4 469.134 26.72 468.254 26.72H433.934V35.6H465.854C466.734 35.6 467.494 35.92 468.134 36.56C468.774 37.2 469.094 37.96 469.094 38.84V56.96C469.094 57.84 468.774 58.6 468.134 59.24C467.494 59.88 466.734 60.2 465.854 60.2H433.934V82.76C433.934 83.64 433.614 84.4 432.974 85.04C432.334 85.68 431.574 86 430.694 86H407.774C406.894 86 406.134 85.68 405.494 85.04C404.854 84.4 404.534 83.64 404.534 82.76V5.24C404.534 4.36 404.854 3.6 405.494 2.96C406.134 2.31999 406.894 1.99999 407.774 1.99999ZM152.384 123.44C152.384 118.544 154.4 114.56 158.432 111.488C162.512 108.416 167.84 106.88 174.416 106.88C181.04 106.88 186.44 108.488 190.616 111.704C194.84 114.92 196.952 118.28 196.952 121.784C196.952 122.216 196.784 122.6 196.448 122.936C196.16 123.224 195.824 123.368 195.44 123.368H181.04C179.936 123.368 178.928 122.96 178.016 122.144C177.104 121.328 175.88 120.92 174.344 120.92C172.04 120.92 170.888 121.592 170.888 122.936C170.888 123.656 171.44 124.256 172.544 124.736C173.696 125.216 175.808 125.648 178.88 126.032C186.032 126.944 191.12 128.624 194.144 131.072C197.216 133.472 198.752 137.144 198.752 142.088C198.752 146.984 196.496 150.992 191.984 154.112C187.52 157.184 181.664 158.72 174.416 158.72C167.168 158.72 161.48 157.232 157.352 154.256C153.224 151.28 151.16 147.656 151.16 143.384C151.16 142.952 151.304 142.592 151.592 142.304C151.928 141.968 152.312 141.8 152.744 141.8H166.424C167.432 141.8 168.536 142.28 169.736 143.24C170.984 144.2 172.688 144.68 174.848 144.68C178.448 144.68 180.248 144.008 180.248 142.664C180.248 141.8 179.6 141.152 178.304 140.72C177.008 140.24 174.56 139.76 170.96 139.28C158.576 137.648 152.384 132.368 152.384 123.44ZM222.851 126.752V138.848C222.851 142.736 224.627 144.68 228.179 144.68C230.915 144.68 232.715 143.384 233.579 140.792C233.819 139.976 234.107 139.424 234.443 139.136C234.827 138.848 235.427 138.704 236.243 138.704H250.931C251.363 138.704 251.723 138.872 252.011 139.208C252.347 139.496 252.515 139.856 252.515 140.288C252.515 144.464 251.315 147.968 248.915 150.8C244.499 156.08 237.611 158.72 228.251 158.72C220.907 158.72 215.051 157.112 210.683 153.896C206.315 150.632 204.131 145.64 204.131 138.92V126.68C204.131 120.104 206.363 115.16 210.827 111.848C215.291 108.536 221.099 106.88 228.251 106.88C237.611 106.88 244.499 109.52 248.915 114.8C251.315 117.632 252.515 121.136 252.515 125.312C252.515 125.744 252.347 126.128 252.011 126.464C251.723 126.752 251.363 126.896 250.931 126.896H236.243C235.475 126.896 234.899 126.752 234.515 126.464C234.179 126.176 233.867 125.624 233.579 124.808C232.667 122.216 230.867 120.92 228.179 120.92C224.627 120.92 222.851 122.864 222.851 126.752ZM290.968 107.6H305.08C305.608 107.6 306.064 107.792 306.448 108.176C306.832 108.56 307.024 109.016 307.024 109.544V156.056C307.024 156.584 306.832 157.04 306.448 157.424C306.064 157.808 305.608 158 305.08 158H290.968C290.44 158 289.984 157.808 289.6 157.424C289.216 157.04 289.024 156.584 289.024 156.056V140.504H277.36V156.056C277.36 156.584 277.168 157.04 276.784 157.424C276.4 157.808 275.944 158 275.416 158H261.304C260.776 158 260.32 157.832 259.936 157.496C259.552 157.112 259.36 156.632 259.36 156.056V109.544C259.36 109.016 259.552 108.56 259.936 108.176C260.32 107.792 260.776 107.6 261.304 107.6H275.416C275.944 107.6 276.4 107.792 276.784 108.176C277.168 108.56 277.36 109.016 277.36 109.544V124.664H289.024V109.544C289.024 109.016 289.216 108.56 289.6 108.176C289.984 107.792 290.44 107.6 290.968 107.6ZM321.495 112.208C325.911 108.656 331.743 106.88 338.991 106.88C346.239 106.88 352.047 108.68 356.415 112.28C360.831 115.832 363.039 120.848 363.039 127.328V138.56C363.039 145.136 360.855 150.152 356.487 153.608C352.167 157.016 346.335 158.72 338.991 158.72C331.647 158.72 325.791 157.016 321.423 153.608C317.103 150.152 314.943 145.136 314.943 138.56V127.328C314.943 120.8 317.127 115.76 321.495 112.208ZM335.103 143.24C336.063 144.2 337.359 144.68 338.991 144.68C340.623 144.68 341.919 144.2 342.879 143.24C343.839 142.28 344.319 140.816 344.319 138.848V126.752C344.319 124.832 343.839 123.392 342.879 122.432C341.919 121.424 340.623 120.92 338.991 120.92C337.359 120.92 336.063 121.424 335.103 122.432C334.143 123.392 333.663 124.832 333.663 126.752V138.848C333.663 140.816 334.143 142.28 335.103 143.24ZM376.058 112.208C380.474 108.656 386.306 106.88 393.554 106.88C400.802 106.88 406.61 108.68 410.978 112.28C415.394 115.832 417.602 120.848 417.602 127.328V138.56C417.602 145.136 415.418 150.152 411.05 153.608C406.73 157.016 400.898 158.72 393.554 158.72C386.21 158.72 380.354 157.016 375.986 153.608C371.666 150.152 369.506 145.136 369.506 138.56V127.328C369.506 120.8 371.69 115.76 376.058 112.208ZM389.666 143.24C390.626 144.2 391.922 144.68 393.554 144.68C395.186 144.68 396.482 144.2 397.442 143.24C398.402 142.28 398.882 140.816 398.882 138.848V126.752C398.882 124.832 398.402 123.392 397.442 122.432C396.482 121.424 395.186 120.92 393.554 120.92C391.922 120.92 390.626 121.424 389.666 122.432C388.706 123.392 388.226 124.832 388.226 126.752V138.848C388.226 140.816 388.706 142.28 389.666 143.24ZM443.796 143.24H463.74C464.268 143.24 464.724 143.432 465.108 143.816C465.492 144.2 465.684 144.656 465.684 145.184V156.056C465.684 156.584 465.492 157.04 465.108 157.424C464.724 157.808 464.268 158 463.74 158H427.452C426.924 158 426.468 157.808 426.084 157.424C425.7 157.04 425.508 156.584 425.508 156.056V109.544C425.508 109.016 425.7 108.56 426.084 108.176C426.468 107.792 426.924 107.6 427.452 107.6H441.852C442.38 107.6 442.836 107.792 443.22 108.176C443.604 108.56 443.796 109.016 443.796 109.544V143.24Z" fill="#7E1ABB"/>
<path d="M72.6829 89.9425C71.1136 86.1519 69.7684 82.3612 68.199 77.8125H67.5264C66.6296 81.6031 64.836 85.7728 63.2667 89.5634L49.8148 121.973H37.2598L61.2489 70.2313C61.6973 68.9046 62.1457 68.1465 62.1457 67.5779C62.1457 66.8198 61.9215 65.8721 61.2489 64.5454C56.9891 54.6898 52.0568 46.9191 43.9857 46.9191C43.3131 46.9191 42.4163 46.9191 41.7437 47.1086L42.6405 39.1483C43.7615 38.7693 45.5551 38.7693 47.3486 38.7693C60.3521 38.7693 66.4054 49.383 73.5797 65.3035L98.914 122.163H86.1348L72.6829 89.9425Z" fill="#7400B3"/>
<path d="M68 158C66.7525 158 65.5237 157.772 64.3321 157.315L16.7241 138.68C13.0935 137.272 10.5427 133.793 10.189 129.856L0.0417853 14.3906C-0.218876 11.4812 0.749295 8.55269 2.68564 6.40388C4.62198 4.25506 7.37755 3 10.2448 3H125.755C128.622 3 131.378 4.23604 133.314 6.40388C135.251 8.57171 136.219 11.4812 135.958 14.3906L125.811 129.856C125.457 133.812 122.888 137.272 119.276 138.68L71.6679 157.296C70.4763 157.753 69.2475 158 68 158ZM10.2448 12.508C9.90969 12.508 9.68627 12.6792 9.55594 12.8123C9.42561 12.9454 9.27665 13.1926 9.31389 13.5349L19.4611 129C19.4983 129.362 19.7217 129.666 20.0569 129.799L67.6649 148.416C67.8883 148.511 68.1117 148.511 68.3351 148.416L115.943 129.799C116.278 129.666 116.502 129.362 116.539 129L126.686 13.5349C126.723 13.1926 126.574 12.9454 126.444 12.8123C126.314 12.6792 126.09 12.508 125.755 12.508H10.2448Z" fill="#7400B3"/>
<ellipse cx="67.5" cy="31" rx="10.5" ry="11" fill="#7400B3"/>
</svg>
